<svg width="30" height="21" viewBox="0 0 30 21" fill="none" xmlns="http://www.w3.org/2000/svg">
<path d="M29.7991 9.75252C28.8395 8.08818 23.5616 -0.263496 14.5952 0.00639658C6.30346 0.216313 1.50536 7.50342 0.200882 9.75252C0.069282 9.98046 0 10.239 0 10.5022C0 10.7654 0.069282 11.024 0.200882 11.2519C1.14551 12.8863 6.1985 20.9981 15.03 20.9981H15.4048C23.6965 20.7881 28.5096 13.501 29.7991 11.2519C29.9307 11.024 30 10.7654 30 10.5022C30 10.239 29.9307 9.98046 29.7991 9.75252ZM15.3299 17.9992C8.86744 18.1492 4.65411 12.6164 3.33464 10.5022C4.83404 8.08818 8.74748 3.15514 14.7451 3.0052C21.1775 2.84027 25.4059 8.38807 26.7403 10.5022C25.1959 12.9163 21.3275 17.8493 15.3299 17.9992Z" fill="#111111"/>
<path d="M14.9999 5.25439C13.9619 5.25439 12.9473 5.56218 12.0843 6.13883C11.2213 6.71548 10.5486 7.53509 10.1514 8.49402C9.75423 9.45295 9.6503 10.5081 9.85279 11.5261C10.0553 12.5441 10.5551 13.4792 11.289 14.2131C12.023 14.9471 12.9581 15.4469 13.9761 15.6494C14.994 15.8519 16.0492 15.748 17.0082 15.3507C17.9671 14.9535 18.7867 14.2809 19.3634 13.4179C19.94 12.5549 20.2478 11.5402 20.2478 10.5023C20.2478 9.11048 19.6949 7.77565 18.7107 6.79147C17.7265 5.8073 16.3917 5.25439 14.9999 5.25439ZM14.9999 12.7514C14.555 12.7514 14.1202 12.6195 13.7503 12.3724C13.3805 12.1252 13.0922 11.774 12.922 11.363C12.7517 10.952 12.7072 10.4998 12.794 10.0635C12.8808 9.62725 13.095 9.22649 13.4095 8.91195C13.7241 8.59741 14.1248 8.3832 14.5611 8.29642C14.9974 8.20964 15.4496 8.25418 15.8606 8.42441C16.2715 8.59463 16.6228 8.88291 16.8699 9.25277C17.1171 9.62264 17.249 10.0575 17.249 10.5023C17.249 11.0988 17.012 11.6709 16.5902 12.0927C16.1684 12.5145 15.5964 12.7514 14.9999 12.7514Z" fill="#111111"/>
</svg>
