<svg width="30" height="27" viewBox="0 0 30 27" fill="none" xmlns="http://www.w3.org/2000/svg">
<path d="M4.06499 0.440502C3.92533 0.300845 3.75954 0.190064 3.57707 0.114483C3.3946 0.0389013 3.19903 0 3.00153 0C2.80402 0 2.60845 0.0389013 2.42598 0.114483C2.24351 0.190064 2.07772 0.300845 1.93806 0.440502C1.65601 0.72255 1.49756 1.10509 1.49756 1.50397C1.49756 1.90284 1.65601 2.28538 1.93806 2.56743L10.3709 11.0003C9.83736 11.9928 9.63782 13.1307 9.80184 14.2455C9.96586 15.3604 10.4847 16.3926 11.2815 17.1894C12.0783 17.9862 13.1105 18.505 14.2254 18.6691C15.3402 18.8331 16.4781 18.6335 17.4706 18.1L25.9035 26.5328C26.0427 26.6732 26.2084 26.7847 26.3909 26.8607C26.5734 26.9367 26.7692 26.9759 26.9669 26.9759C27.1647 26.9759 27.3604 26.9367 27.543 26.8607C27.7255 26.7847 27.8911 26.6732 28.0304 26.5328C28.1708 26.3936 28.2822 26.2279 28.3583 26.0454C28.4343 25.8629 28.4734 25.6671 28.4734 25.4694C28.4734 25.2716 28.4343 25.0759 28.3583 24.8933C28.2822 24.7108 28.1708 24.5451 28.0304 24.4059L4.06499 0.440502ZM14.9842 15.7334C14.3883 15.7334 13.8169 15.4967 13.3955 15.0754C12.9742 14.654 12.7375 14.0825 12.7375 13.4867V13.3818L15.0741 15.7184L14.9842 15.7334Z" fill="white"/>
<path d="M15.3139 20.9759C8.87315 21.1256 4.64925 15.5986 3.33115 13.4867C4.2695 11.9899 5.39721 10.6205 6.68631 9.41256L4.49947 7.30061C2.8089 8.89351 1.36061 10.7253 0.200672 12.7378C0.0692096 12.9655 0 13.2238 0 13.4867C0 13.7496 0.0692096 14.0079 0.200672 14.2356C1.14431 15.8682 6.19202 23.9715 15.0143 23.9715H15.3887C17.0477 23.9223 18.6851 23.5827 20.2268 22.968L17.8602 20.6014C17.0279 20.8203 16.1739 20.9459 15.3139 20.9759ZM29.768 12.7378C28.8094 11.0752 23.522 2.7322 14.5799 3.00181C12.921 3.05102 11.2835 3.39068 9.7419 4.00536L12.1085 6.37195C12.9407 6.15301 13.7948 6.02741 14.6548 5.99749C21.0805 5.83273 25.3044 11.3747 26.6375 13.4867C25.676 14.988 24.5229 16.3575 23.2075 17.5608L25.4692 19.6727C27.181 18.084 28.6496 16.252 29.8279 14.2356C29.9504 14.0027 30.0093 13.7416 29.9988 13.4786C29.9883 13.2157 29.9087 12.9602 29.768 12.7378Z" fill="white"/>
</svg>
