<svg width="22" height="22" viewBox="0 0 22 22" fill="none" xmlns="http://www.w3.org/2000/svg">
<path d="M11.9406 0C13.8906 0 14.3023 0.0216666 15.2989 0.0649999C16.4473 0.119167 17.2381 0.303333 17.9206 0.574167C18.6356 0.845 19.2423 1.22417 19.8381 1.82C20.4448 2.41583 20.8131 3.0225 21.0948 3.7375C21.3656 4.42 21.5389 5.21083 21.5931 6.37C21.6473 7.39917 21.6581 7.8 21.6581 9.96667V11.7C21.6581 13.8667 21.6473 14.2675 21.5931 15.2967C21.5761 16.1924 21.4076 17.0788 21.0948 17.9183C20.8131 18.6333 20.4448 19.24 19.8489 19.8358C19.2423 20.4425 18.6356 20.8108 17.9206 21.0925C17.2381 21.3633 16.4473 21.5367 15.2989 21.5908C14.2698 21.645 13.8581 21.6558 11.6914 21.6558H9.96895C7.80228 21.6558 7.40145 21.645 6.36145 21.5908C5.46573 21.5736 4.57936 21.4051 3.73978 21.0925C3.01785 20.8211 2.36357 20.396 1.82228 19.8467C1.2674 19.3035 0.838433 18.6453 0.565615 17.9183C0.253204 17.0787 0.0847269 16.1924 0.0672819 15.2967C0.0141738 14.1781 -0.00750136 13.0582 0.00228201 11.9383V9.7175C0.00228201 7.7675 0.0239486 7.35583 0.0672819 6.35917C0.121449 5.21083 0.305615 4.42 0.565615 3.7375C0.847282 3.0225 1.21562 2.41583 1.82228 1.82C2.35872 1.26471 3.01442 0.838691 3.73978 0.574167C4.57877 0.258057 5.46513 0.0859138 6.36145 0.0649999C7.35811 0.0216666 7.76978 0 9.71978 0H11.9406ZM11.9623 1.95H9.69811C7.82395 1.95 7.42311 1.97167 6.44811 2.015C5.39728 2.05833 4.82312 2.23167 4.44395 2.38333C3.93478 2.57833 3.57728 2.81667 3.19811 3.19583C2.81895 3.575 2.58061 3.9325 2.38561 4.44167C2.24478 4.82083 2.06062 5.395 2.01728 6.45667C1.97395 7.43167 1.95228 7.82167 1.95228 9.70667V11.96C1.95228 13.845 1.97395 14.235 2.01728 15.21C2.06062 16.2608 2.23395 16.835 2.38561 17.2142C2.58061 17.7233 2.81895 18.0808 3.19811 18.46C3.57728 18.8392 3.93478 19.0775 4.44395 19.2725C4.82312 19.4242 5.39728 19.5975 6.45895 19.6408C7.50978 19.695 7.88895 19.7058 10.2289 19.7058H11.4314C13.7823 19.7058 14.1506 19.695 15.2123 19.6408C16.2631 19.5975 16.8373 19.4242 17.2164 19.2725C17.7256 19.0775 18.0831 18.8392 18.4623 18.46C18.8414 18.0808 19.0798 17.7233 19.2748 17.2142C19.4264 16.835 19.5998 16.2608 19.6431 15.21C19.6973 14.1483 19.7081 13.78 19.7081 11.4292V10.2375C19.7081 7.88667 19.6973 7.5075 19.6431 6.44583C19.5998 5.395 19.4264 4.82083 19.2748 4.44167C19.1005 3.97088 18.8228 3.54516 18.4623 3.19583C18.1132 2.835 17.6874 2.55731 17.2164 2.38333C16.5739 2.14843 15.8963 2.0239 15.2123 2.015C14.1298 1.96329 13.046 1.94161 11.9623 1.95V1.95ZM10.8356 5.265C12.311 5.265 13.7259 5.85109 14.7692 6.89434C15.8124 7.93759 16.3985 9.35254 16.3985 10.8279C16.3985 12.3033 15.8124 13.7182 14.7692 14.7615C13.7259 15.8047 12.311 16.3908 10.8356 16.3908C9.36024 16.3908 7.94529 15.8047 6.90204 14.7615C5.85879 13.7182 5.2727 12.3033 5.2727 10.8279C5.2727 9.35254 5.85879 7.93759 6.90204 6.89434C7.94529 5.85109 9.36024 5.265 10.8356 5.265V5.265ZM10.8356 7.215C9.87741 7.215 8.95845 7.59564 8.2809 8.2732C7.60334 8.95075 7.2227 9.86971 7.2227 10.8279C7.2227 11.7861 7.60334 12.7051 8.2809 13.3826C8.95845 14.0602 9.87741 14.4408 10.8356 14.4408C11.7938 14.4408 12.7128 14.0602 13.3903 13.3826C14.0679 12.7051 14.4485 11.7861 14.4485 10.8279C14.4485 9.86971 14.0679 8.95075 13.3903 8.2732C12.7128 7.59564 11.7938 7.215 10.8356 7.215V7.215ZM16.6098 3.74833C16.9546 3.74833 17.2852 3.8853 17.529 4.12909C17.7728 4.37289 17.9098 4.70355 17.9098 5.04833C17.9098 5.39311 17.7728 5.72377 17.529 5.96757C17.2852 6.21137 16.9546 6.34833 16.6098 6.34833C16.265 6.34833 15.9343 6.21137 15.6905 5.96757C15.4467 5.72377 15.3098 5.39311 15.3098 5.04833C15.3098 4.70355 15.4467 4.37289 15.6905 4.12909C15.9343 3.8853 16.265 3.74833 16.6098 3.74833V3.74833Z" fill="#F5F5F5"/>
</svg>
