<svg width="23" height="22" viewBox="0 0 23 22" fill="none" xmlns="http://www.w3.org/2000/svg">
<path d="M0.658203 2.55556C0.658203 1.8148 0.905958 1.20369 1.40145 0.722222C1.89693 0.240733 2.54109 0 3.33388 0C4.11252 0 4.74249 0.237022 5.22384 0.711111C5.71933 1.2 5.96708 1.83702 5.96708 2.62222C5.96708 3.33333 5.72642 3.92591 5.24508 4.4C4.74959 4.88889 4.09836 5.13333 3.29141 5.13333H3.27017C2.49153 5.13333 1.86156 4.88889 1.38021 4.4C0.898865 3.91111 0.658203 3.29629 0.658203 2.55556ZM0.934265 22V7.15556H5.64855V22H0.934265ZM8.26052 22H12.9748V13.7111C12.9748 13.1926 13.0314 12.7926 13.1447 12.5111C13.3429 12.0074 13.6437 11.5815 14.0472 11.2333C14.4507 10.8852 14.9568 10.7111 15.5655 10.7111C17.1511 10.7111 17.9439 11.8296 17.9439 14.0667V22H22.6582V13.4889C22.6582 11.2963 22.1627 9.63333 21.1717 8.5C20.1807 7.36667 18.8712 6.8 17.2431 6.8C15.4169 6.8 13.9941 7.62222 12.9748 9.26667V9.31111H12.9536L12.9748 9.26667V7.15556H8.26052C8.28883 7.62962 8.30299 9.10369 8.30299 11.5778C8.30299 14.0518 8.28883 17.5259 8.26052 22Z" fill="#F5F5F5"/>
</svg>
